<svg aria-hidden="true" style="width:0;height:0;position:absolute;overflow:hidden" xmlns="http://www.w3.org/2000/svg"><defs><symbol id="icon-moon" viewBox="0 0 32 32"><path fill="none" stroke="#5f6775" style="stroke:var(--color1,#5f6775)" stroke-linejoin="round" stroke-linecap="round" stroke-width="2.286" d="M28 17.053c-.584 6.134-5.71 10.893-11.947 10.893-6.627 0-11.998-5.372-11.998-11.998 0-6.237 4.759-11.363 10.845-11.944L14.948 4a9.264 9.264 0 0 0-1.827 5.546 9.333 9.333 0 0 0 14.904 7.489l-.025.018z"/></symbol><symbol id="icon-sun" viewBox="0 0 32 32"><path fill="none" stroke="#4b48db" style="stroke:var(--color2,#4b48db)" stroke-linejoin="round" stroke-linecap="round" stroke-width="2.286" d="M16 1.778v2.586m0 23.272v2.586M5.943 5.943l1.836 1.836m16.445 16.445 1.836 1.836M1.778 16h2.586m23.272 0h2.586M5.943 26.059l1.836-1.836M24.222 7.778l1.836-1.836M22.466 16a6.465 6.465 0 0 1-12.93 0v0a6.465 6.465 0 0 1 12.93 0v0z"/></symbol><symbol id="icon-dark" viewBox="0 0 85 32"><path d="M9.156 3.102c2.918 0 5.44.55 7.565 1.651 2.15 1.075 3.789 2.624 4.915 4.646 1.152 2.022 1.728 4.403 1.728 7.142s-.576 5.12-1.728 7.142c-1.126 1.997-2.765 3.533-4.915 4.608-2.125 1.05-4.646 1.574-7.565 1.574H.823V3.1h8.333zm0 23.885c3.456 0 6.093-.909 7.91-2.726 1.818-1.843 2.726-4.416 2.726-7.718 0-3.328-.922-5.926-2.765-7.795-1.818-1.869-4.442-2.803-7.872-2.803H4.317v21.043h4.838zm17.513-7.719c0-2.15.435-4.032 1.306-5.645a9.56 9.56 0 0 1 3.529-3.778l.042-.024c1.536-.896 3.238-1.344 5.107-1.344 1.843 0 3.443.397 4.8 1.19s2.368 1.792 3.034 2.995v-3.84h3.533v21.043h-3.533v-3.917c-.691 1.229-1.728 2.253-3.11 3.072-1.357.794-2.944 1.19-4.762 1.19-1.869 0-3.558-.461-5.069-1.382s-2.701-2.214-3.571-3.878c-.87-1.664-1.306-3.558-1.306-5.683zm17.817.039c0-1.587-.32-2.97-.96-4.147a6.655 6.655 0 0 0-2.579-2.671l-.032-.017a6.78 6.78 0 0 0-3.498-.96h-.077.004c-1.306 0-2.496.307-3.571.922a6.732 6.732 0 0 0-2.555 2.652l-.018.036c-.64 1.178-.96 2.56-.96 4.147 0 1.613.32 3.021.96 4.224.64 1.178 1.498 2.086 2.573 2.726a6.985 6.985 0 0 0 3.491.922h.084-.004c1.306 0 2.496-.307 3.571-.922 1.101-.64 1.971-1.549 2.611-2.726.64-1.203.96-2.598.96-4.186zm12.933-7.066a6.79 6.79 0 0 1 2.58-2.786l.031-.017c1.152-.666 2.547-.998 4.186-.998v3.61h-.922c-3.917 0-5.875 2.125-5.875 6.374v11.443h-3.494V8.824h3.494v3.418zm22.579 17.626-8.256-9.293v9.293H68.25V1.451h3.492v16.704l8.105-9.331h4.877l-9.909 10.483 9.946 10.56h-4.759z"/></symbol><symbol id="icon-light" viewBox="0 0 69 32"><path d="M3.409 21.336h7.397v2.243H.65V2.449h2.759v18.887zM15.161 4.268c-.525 0-.97-.182-1.334-.546a1.81 1.81 0 0 1-.546-1.297v-.039.002c0-.525.182-.97.546-1.334s.808-.546 1.334-.546c.505 0 .93.182 1.273.546.364.364.546.808.546 1.334s-.182.97-.546 1.334c-.308.336-.75.546-1.24.546h-.035.002zm1.334 2.698v16.613h-2.759V6.966h2.759zm11.554-.273c1.433 0 2.686.313 3.757.94 1.091.627 1.9 1.415 2.425 2.365V6.966h2.789v16.977c0 1.516-.323 2.86-.97 4.032a6.927 6.927 0 0 1-2.753 2.771l-.036.018c-1.192.667-2.587 1-4.184 1-2.183 0-4.002-.515-5.457-1.546s-2.314-2.435-2.577-4.214h2.728c.303 1.011.93 1.819 1.88 2.425.95.627 2.092.94 3.426.94 1.516 0 2.749-.475 3.699-1.425.97-.95 1.455-2.284 1.455-4.002v-3.486c-.546.97-1.354 1.779-2.425 2.425s-2.324.97-3.759.97h-.083a7.653 7.653 0 0 1-3.983-1.111l.034.019c-1.192-.728-2.132-1.748-2.819-3.062s-1.031-2.809-1.031-4.487c0-1.698.344-3.183 1.031-4.456a7.538 7.538 0 0 1 2.786-2.982l.033-.019c1.213-.707 2.557-1.061 4.032-1.061zm6.183 8.549c0-1.253-.253-2.344-.758-3.274a5.256 5.256 0 0 0-2.036-2.109l-.026-.013a5.35 5.35 0 0 0-2.761-.758h-.061.003c-1.031 0-1.971.243-2.819.728a5.318 5.318 0 0 0-2.017 2.094l-.014.029c-.505.93-.758 2.021-.758 3.274 0 1.273.253 2.385.758 3.335.505.93 1.182 1.647 2.031 2.152a5.515 5.515 0 0 0 2.756.728h.067-.003c1.031 0 1.971-.243 2.819-.728.869-.505 1.556-1.223 2.061-2.152.505-.95.758-2.051.758-3.304zm15.696-8.579c1.253 0 2.385.273 3.395.819 1.011.525 1.799 1.324 2.365 2.395.586 1.071.879 2.375.879 3.911v9.792h-2.728v-9.398c0-1.657-.414-2.92-1.243-3.789-.829-.889-1.96-1.334-3.395-1.334-1.455 0-2.617.455-3.486 1.364-.849.909-1.273 2.233-1.273 3.971v9.186h-2.757V1.146h2.759v8.185a5.492 5.492 0 0 1 2.211-1.956l.033-.014c.97-.465 2.051-.697 3.244-.697zM64.44 9.24v9.792c0 .808.172 1.384.515 1.728.344.323.94.485 1.789.485h2.031v2.334h-2.486c-1.536 0-2.688-.354-3.456-1.061s-1.152-1.869-1.152-3.486V9.24h-2.152V6.966h2.152V2.782h2.759v4.184h4.335V9.24H64.44z"/></symbol><symbol id="icon-book" viewBox="0 0 32 32"><path fill="none" stroke="#f4f4f4" style="stroke:var(--color3,#f4f4f4)" stroke-linejoin="round" stroke-linecap="round" stroke-width="1.778" d="M2.667 4h8A5.333 5.333 0 0 1 16 9.333V28a4 4 0 0 0-4-4v0H2.667V4zm26.666 0h-8A5.333 5.333 0 0 0 16 9.333V28a4 4 0 0 1 4-4v0h9.333V4z"/></symbol><symbol id="icon-heart" viewBox="0 0 32 32"><path fill="none" stroke="#f4f4f4" style="stroke:var(--color3,#f4f4f4)" stroke-linejoin="round" stroke-linecap="round" stroke-width="1.778" d="M27.787 6.146C26.46 4.818 24.626 3.997 22.6 3.997s-3.859.821-5.187 2.149L16 7.559l-1.413-1.413A7.335 7.335 0 0 0 4.214 16.52L16 28.306l11.787-11.787c1.328-1.327 2.149-3.161 2.149-5.187s-.821-3.859-2.149-5.187h0z"/></symbol><symbol id="icon-home" viewBox="0 0 32 32"><path fill="none" stroke="#f4f4f4" style="stroke:var(--color3,#f4f4f4)" stroke-linejoin="round" stroke-linecap="round" stroke-width="1.778" d="m4 12 12-9.333L28 12v14.667a2.667 2.667 0 0 1-2.667 2.667v0H6.666a2.667 2.667 0 0 1-2.667-2.667v0V12z"/><path fill="none" stroke="#f4f4f4" style="stroke:var(--color3,#f4f4f4)" stroke-linejoin="round" stroke-linecap="round" stroke-width="1.778" d="M12 29.333V16h8v13.333"/></symbol><symbol id="icon-heart-l" viewBox="0 0 32 32"><path fill="none" stroke="#4440f7" style="stroke:var(--color4,#4440f7)" stroke-linejoin="round" stroke-linecap="round" stroke-width="2" d="M9.334 4c-3.682 0-6.668 2.954-6.668 6.6 0 2.942 1.168 9.926 12.652 16.986a1.31 1.31 0 0 0 1.37-.003l-.006.003c11.484-7.06 12.652-14.044 12.652-16.986 0-3.646-2.986-6.6-6.668-6.6C18.986 4 16 8 16 8s-2.986-4-6.666-4z"/></symbol><symbol id="icon-Vector-up-1" viewBox="0 0 32 32"><path fill="#4440f6" style="fill:var(--color5,#4440f6)" d="M3.76 25.143 0 21.664 16 6.857l16 14.807-3.76 3.479L16 13.84 3.76 25.143z"/></symbol><symbol id="icon-down" viewBox="0 0 32 32"><path fill="#4440f6" style="fill:var(--color5,#4440f6)" d="M3.76 6.857 0 10.336l16 14.807 16-14.807-3.76-3.479L16 18.16 3.76 6.857z"/></symbol><symbol id="icon-calendar" viewBox="0 0 32 32"><path fill="#4440f7" style="fill:var(--color4,#4440f7)" d="M23.408 4.444h5.925a1.48 1.48 0 0 1 1.481 1.481V29.63a1.48 1.48 0 0 1-1.481 1.481H2.666a1.48 1.48 0 0 1-1.481-1.481V5.925a1.48 1.48 0 0 1 1.481-1.481h5.925V1.48h2.964v2.964h8.889V1.48h2.964v2.964zm4.444 11.853H4.147v11.851h23.705V16.297zm-7.408-8.889h-8.889v2.962H8.591V7.408H4.147v5.925h23.705V7.408h-4.444v2.962h-2.964V7.408zM7.111 19.259h2.964v2.964H7.111v-2.964zm7.408 0h2.962v2.964h-2.962v-2.964zm7.406 0h2.964v2.964h-2.964v-2.964z"/></symbol><symbol id="icon-lupa" viewBox="0 0 32 32"><path d="M13.803 25.882c2.786 0 5.489-.885 7.682-2.515l6.897 6.551 2.217-2.108-6.897-6.551a11.41 11.41 0 0 0 2.65-7.296v-.002c0-6.573-5.628-11.923-12.55-11.923-6.92 0-12.548 5.35-12.548 11.923s5.628 11.921 12.548 11.921zm0-20.862c5.192 0 9.412 4.009 9.412 8.941s-4.22 8.941-9.412 8.941c-5.19 0-9.412-4.009-9.412-8.941S8.613 5.02 13.803 5.02z"/></symbol></defs></svg>